<?xml version="1.0" standalone="no"?>
<!DOCTYPE svg PUBLIC "-//W3C//DTD SVG 20010904//EN"
 "http://www.w3.org/TR/2001/REC-SVG-20010904/DTD/svg10.dtd">
<svg version="1.0" xmlns="http://www.w3.org/2000/svg"
 width="536.000000pt" height="536.000000pt" viewBox="0 0 536.000000 536.000000"
 preserveAspectRatio="xMidYMid meet">
<metadata>
Created by potrace 1.11, written by Peter Selinger 2001-2013
</metadata>
<g transform="translate(0.000000,536.000000) scale(0.100000,-0.100000)"
fill="#000000" stroke="none">
<path d="M469 5333 c-11 -29 -31 -82 -144 -368 -37 -93 -77 -197 -90 -230 -13
-33 -44 -113 -69 -178 l-46 -117 0 -1880 0 -1879 313 -1 c171 -1 323 -1 337 0
14 1 32 2 40 1 8 0 107 0 220 0 113 1 212 0 220 0 30 -1 109 -1 117 0 31 5 33
-3 34 -134 0 -72 0 -143 -1 -157 -1 -14 -2 -29 -2 -35 1 -5 1 -88 2 -182 l1
-173 359 0 360 0 340 340 340 340 408 -1 c224 0 416 0 427 0 71 2 149 0 153
-3 21 -21 122 74 759 711 l693 693 0 1640 0 1640 -2380 0 -2380 0 -11 -27z
m791 -452 c25 0 50 1 55 0 6 0 55 0 110 0 55 -1 143 -1 195 -2 52 -1 101 -1
108 0 6 1 18 2 25 2 6 1 32 0 57 -1 38 -1 85 -2 275 -1 11 0 85 0 165 0 141 0
156 0 183 2 6 1 68 1 137 0 69 0 132 0 140 0 8 0 69 0 135 0 213 -2 289 -2
335 0 25 0 50 1 55 0 6 0 55 0 110 0 55 -1 143 -1 195 -2 52 -1 101 -1 108 0
6 1 18 2 25 2 6 1 32 0 57 -1 38 -1 85 -2 275 -1 11 0 85 0 165 0 80 0 152 0
160 0 76 2 265 -1 270 -4 3 -2 12 0 19 4 7 5 30 5 52 1 22 -4 42 -4 44 0 3 5
14 6 24 3 18 -5 20 -16 21 -136 2 -143 2 -143 0 -172 -1 -11 -1 -87 -1 -170 3
-387 3 -437 1 -470 -1 -11 -1 -87 -1 -170 3 -387 3 -437 1 -470 -1 -11 -1 -87
-1 -170 3 -392 3 -438 1 -470 -1 -11 -1 -63 0 -115 1 -52 1 -123 1 -157 l-1
-63 -400 -400 -401 -401 -102 0 c-56 0 -109 0 -117 0 -8 -1 -44 -1 -80 0 -36
0 -72 0 -80 0 -8 -1 -44 -1 -80 0 -36 0 -72 0 -80 0 -8 -1 -44 -1 -80 0 -36 0
-72 0 -80 0 -8 -1 -44 -1 -80 0 -36 0 -72 0 -80 0 -8 -1 -44 -1 -80 0 -36 0
-72 0 -80 0 -8 -1 -46 -1 -85 0 -38 0 -93 1 -122 1 l-52 1 -338 -337 -338
-338 -5 70 c-3 38 -3 92 0 119 3 28 3 82 0 120 -3 39 -3 95 0 125 3 30 3 86 0
123 -3 38 -2 71 1 73 4 2 5 13 2 24 -5 17 -13 19 -84 17 -43 -1 -79 1 -79 5 0
3 -8 4 -17 2 -30 -7 -223 -9 -223 -2 0 3 -8 4 -17 2 -27 -7 -223 -10 -223 -4
0 3 -26 3 -57 0 -32 -3 -79 -3 -106 0 -26 3 -52 3 -57 0 -6 -4 -33 -4 -60 0
-27 4 -54 4 -59 1 -5 -4 -30 -5 -55 -3 l-45 4 -1 771 c-1 425 -1 777 -1 782
-1 33 0 1584 0 1600 1 11 1 61 1 111 l0 92 66 0 c36 0 67 1 69 3 2 2 39 3 82
1 43 -1 98 -2 123 -1z"/>
<path d="M1500 3270 l0 -1280 1280 0 1280 0 0 768 0 768 -767 -1 -768 0 -1
-245 c0 -135 1 -250 3 -255 2 -7 168 -11 512 -10 l509 0 0 -256 0 -256 -767 1
-766 1 -1 766 -2 766 1022 0 1021 0 3 256 2 257 -1280 0 -1280 0 0 -1280z"/>
</g>
</svg>
